<?xml version="1.0" standalone="no"?>
<!DOCTYPE svg PUBLIC "-//W3C//DTD SVG 20010904//EN"
 "http://www.w3.org/TR/2001/REC-SVG-20010904/DTD/svg10.dtd">
<svg version="1.0" xmlns="http://www.w3.org/2000/svg"
 width="1114.996543pt" height="1407.472131pt" viewBox="0 0 1114.996543 1407.472131"
 preserveAspectRatio="xMidYMid meet">

<g transform="translate(-442.545972,1719.496293) scale(0.100000,-0.100000)"
fill="#000000" stroke="none">
<path d="M9620 17190 c-182 -10 -504 -45 -635 -70 -510 -98 -798 -178 -1195
-335 -580 -230 -1109 -537 -1575 -914 -353 -285 -660 -607 -961 -1008 -170
-227 -368 -570 -503 -873 -86 -193 -205 -564 -250 -785 -53 -256 -75 -458 -76
-705 0 -255 20 -424 81 -680 79 -327 180 -574 343 -835 171 -275 350 -469 565
-614 91 -62 277 -153 356 -175 223 -61 483 -30 725 89 103 50 280 163 375 239
88 71 88 71 111 50 18 -16 19 -34 19 -368 0 -192 -5 -402 -10 -465 -14 -162
-38 -391 -51 -486 -16 -120 -64 -412 -79 -485 -6 -25 -21 -99 -35 -165 -14
-66 -32 -147 -40 -180 -8 -33 -23 -100 -35 -150 -38 -162 -62 -258 -95 -380
-19 -66 -48 -174 -65 -240 -17 -66 -40 -151 -50 -190 -10 -38 -34 -128 -53
-200 -19 -71 -45 -166 -57 -210 -26 -95 -110 -432 -140 -560 -11 -49 -27 -117
-35 -150 -47 -195 -115 -551 -135 -705 -60 -461 -74 -637 -74 -910 -1 -354 36
-599 134 -886 35 -104 70 -165 105 -184 58 -31 131 -7 156 52 13 33 9 73 -31
253 -15 72 -33 155 -39 185 -17 84 -41 334 -41 435 0 95 24 412 40 530 5 39
16 122 25 185 49 370 120 760 195 1075 65 277 192 766 235 910 107 357 293
1083 339 1320 23 119 41 218 80 440 18 101 40 268 61 455 9 80 21 186 27 235
6 50 11 212 12 360 1 173 5 270 11 270 6 0 53 -21 105 -47 52 -26 131 -56 175
-69 140 -38 126 -15 120 -196 -12 -344 -26 -613 -35 -703 -5 -52 -17 -169 -26
-260 -17 -184 -52 -452 -88 -695 -16 -104 -40 -275 -56 -405 -11 -89 -37 -295
-50 -400 -5 -41 -14 -109 -20 -150 -20 -147 -78 -664 -100 -890 -7 -69 -21
-197 -31 -285 -11 -88 -24 -198 -30 -245 -24 -209 -71 -542 -94 -665 -9 -44
-20 -107 -26 -140 -40 -221 -166 -740 -385 -1575 -55 -212 -68 -360 -37 -420
36 -70 121 -86 193 -37 53 36 67 64 105 207 75 288 89 342 147 550 72 258 63
225 132 490 89 342 103 406 186 860 30 163 69 442 105 750 8 74 20 171 25 215
6 44 17 148 25 230 8 83 20 188 25 235 5 47 15 135 21 195 5 61 14 142 20 180
5 39 16 122 24 185 26 208 34 264 65 481 18 118 36 243 41 279 4 36 15 117 24
180 15 108 35 251 55 400 26 196 37 297 64 595 31 336 37 448 39 713 2 232 4
273 17 276 8 3 42 6 75 8 l60 3 -2 -140 c-2 -175 -20 -597 -34 -770 -27 -347
-75 -762 -114 -995 -59 -350 -124 -798 -145 -1005 -6 -60 -17 -162 -25 -225
-44 -363 -66 -554 -80 -715 -8 -99 -18 -200 -20 -225 -12 -99 -44 -527 -66
-870 -17 -276 -1 -353 78 -387 30 -12 45 -12 82 -3 126 31 138 85 201 870 13
158 36 441 49 590 9 100 28 271 46 420 3 25 12 108 20 185 9 77 27 221 40 320
59 426 124 877 145 1000 5 33 21 143 35 245 13 102 36 266 49 365 23 166 39
313 66 615 15 161 33 693 26 761 l-5 57 43 38 c24 22 77 60 117 86 41 26 105
75 142 109 40 36 72 58 77 53 5 -5 12 -193 16 -419 6 -402 -4 -855 -26 -1145
-20 -263 -40 -496 -50 -575 -11 -95 -48 -424 -60 -545 -5 -47 -16 -143 -25
-215 -8 -71 -24 -209 -35 -305 -34 -296 -49 -400 -140 -925 -17 -99 -35 -202
-40 -230 -56 -326 -197 -886 -285 -1131 -19 -54 -62 -178 -95 -275 -124 -367
-385 -930 -555 -1194 -109 -168 -129 -202 -167 -277 -67 -131 -51 -217 42
-233 100 -17 172 38 295 225 212 321 358 585 490 883 247 563 367 924 501
1517 8 36 19 83 24 105 70 306 135 649 185 970 8 55 18 114 20 130 7 36 32
219 45 325 5 41 16 127 25 190 9 63 20 151 25 195 5 44 18 152 29 240 19 156
39 336 61 560 11 118 24 296 40 545 5 85 12 182 15 215 17 191 35 639 36 885
1 157 3 288 6 293 2 4 17 -2 33 -13 28 -20 178 -93 252 -124 24 -9 39 -23 42
-38 5 -22 22 -306 46 -753 15 -288 29 -687 40 -1185 11 -464 2 -1003 -25
-1510 -13 -246 -21 -355 -54 -755 -22 -250 -54 -498 -102 -790 -20 -121 -25
-146 -54 -308 -26 -150 -74 -383 -120 -587 -40 -176 -59 -258 -126 -537 -27
-113 -11 -149 70 -160 84 -11 121 66 237 497 180 672 271 1173 344 1910 32
327 56 699 70 1080 13 341 12 1652 0 2434 -6 375 -7 613 -1 619 5 5 49 12 98
14 68 4 91 2 99 -8 6 -9 8 -153 3 -434 -20 -1170 -22 -1522 -10 -1954 12 -451
24 -713 41 -941 17 -215 71 -786 90 -945 39 -332 82 -645 106 -780 14 -77 95
-488 111 -565 15 -66 96 -380 132 -505 105 -373 143 -447 220 -430 68 15 78
63 42 202 -67 257 -149 640 -201 938 -120 693 -173 1092 -229 1715 -6 63 -15
167 -21 230 -49 539 -64 1676 -31 2390 19 397 33 750 38 942 4 123 9 190 17
196 6 4 40 21 76 37 78 36 186 99 218 128 17 16 25 18 34 9 8 -8 14 -117 20
-344 8 -349 28 -742 53 -1063 9 -104 19 -246 25 -315 9 -121 20 -231 40 -410
5 -47 17 -148 25 -225 9 -77 20 -171 25 -210 5 -38 12 -95 15 -125 3 -30 10
-84 15 -120 5 -36 17 -119 26 -185 20 -151 61 -439 74 -525 40 -257 73 -457
86 -525 26 -137 64 -328 74 -370 5 -22 16 -74 25 -115 9 -41 23 -104 31 -140
8 -36 20 -87 26 -115 11 -50 44 -177 74 -290 65 -240 200 -649 281 -855 149
-377 429 -902 648 -1214 92 -132 112 -149 185 -154 58 -4 61 -3 96 32 36 36
37 38 32 100 -6 72 -27 114 -171 352 -152 249 -293 515 -392 739 -72 163 -240
628 -295 815 -47 163 -79 280 -94 340 -90 379 -151 662 -176 820 -5 30 -27
163 -50 295 -58 343 -117 765 -150 1070 -6 50 -14 124 -20 165 -10 79 -32 289
-50 475 -46 492 -47 508 -66 745 -35 447 -66 1492 -45 1505 7 4 30 -10 54 -32
62 -57 120 -94 243 -156 l111 -56 7 -128 c3 -70 11 -218 16 -328 5 -110 14
-249 20 -310 34 -377 41 -458 50 -530 5 -44 17 -138 25 -210 9 -71 20 -157 25
-190 6 -33 17 -112 25 -175 9 -63 20 -142 26 -175 5 -33 14 -91 19 -130 5 -38
16 -115 25 -170 49 -303 86 -561 115 -800 51 -419 58 -487 65 -585 3 -47 10
-128 15 -180 5 -52 16 -165 25 -250 8 -85 20 -200 25 -255 5 -55 17 -192 25
-305 21 -290 23 -310 39 -450 23 -193 43 -241 112 -272 95 -41 172 1 194 108
14 64 9 296 -9 439 -14 112 -28 260 -46 475 -58 687 -66 772 -115 1220 -29
262 -30 267 -86 670 -8 58 -19 137 -24 175 -5 39 -17 115 -25 170 -19 129 -32
223 -50 360 -8 61 -21 162 -30 225 -20 153 -51 435 -64 595 -28 335 -56 859
-46 875 9 15 140 13 153 -2 5 -8 12 -104 15 -223 3 -115 10 -257 16 -315 6
-58 15 -163 21 -235 11 -124 27 -288 51 -495 11 -97 19 -161 44 -355 8 -60 19
-148 24 -195 45 -397 93 -799 111 -930 6 -41 15 -115 21 -165 14 -126 25 -227
44 -390 31 -270 45 -401 55 -505 11 -133 28 -285 40 -375 5 -38 17 -126 25
-195 44 -350 56 -428 105 -665 16 -82 46 -226 65 -320 56 -275 115 -533 155
-675 11 -36 66 -256 124 -490 64 -255 113 -435 124 -450 55 -74 184 -62 227
20 19 37 19 140 0 245 -20 111 -123 559 -215 935 -80 327 -174 784 -211 1025
-5 33 -16 105 -24 160 -9 55 -20 134 -25 175 -5 41 -13 109 -19 150 -5 41 -14
116 -20 165 -6 50 -17 146 -25 215 -8 69 -20 172 -25 230 -38 388 -55 541 -81
750 -20 163 -41 329 -50 410 -24 211 -45 381 -80 660 -61 478 -107 970 -120
1282 -11 240 -11 551 -2 586 5 17 27 31 88 56 45 18 118 53 163 77 99 53 101
52 101 -76 0 -239 40 -661 95 -1020 8 -55 20 -129 25 -165 43 -297 176 -853
415 -1740 134 -498 178 -668 265 -1045 107 -466 176 -911 220 -1422 27 -321 7
-592 -75 -980 -37 -180 -33 -218 25 -248 124 -64 220 79 294 440 84 407 75
913 -30 1605 -63 419 -107 634 -245 1195 -17 73 -37 146 -104 395 -12 47 -39
148 -59 225 -21 77 -50 185 -66 240 -16 55 -33 118 -38 140 -5 22 -37 146 -70
275 -33 129 -68 271 -77 315 -9 44 -25 116 -35 160 -19 82 -72 347 -90 445
-29 166 -60 434 -80 685 -14 182 -29 758 -19 768 10 13 44 -7 124 -73 177
-144 371 -247 533 -284 100 -23 254 -31 338 -17 80 12 210 53 263 83 198 111
301 187 438 326 368 370 582 836 695 1507 18 110 18 666 0 790 -51 344 -97
537 -202 855 -77 233 -270 628 -433 890 -303 485 -849 1058 -1357 1426 -201
145 -405 281 -535 355 -103 59 -465 237 -590 291 -150 65 -510 199 -597 223
-29 8 -78 21 -108 30 -108 31 -236 66 -280 75 -25 5 -84 19 -132 29 -370 84
-778 128 -1243 135 -170 2 -380 1 -465 -4z m1005 -440 c286 -33 326 -38 447
-59 221 -38 603 -143 868 -239 772 -278 1405 -674 1983 -1241 370 -362 663
-760 890 -1209 258 -509 386 -1001 387 -1482 0 -479 -135 -945 -384 -1323
-260 -396 -486 -570 -771 -593 -185 -16 -421 104 -673 339 -102 96 -165 132
-249 143 -45 5 -61 2 -116 -24 -38 -17 -98 -60 -146 -103 -152 -136 -222 -189
-304 -231 -158 -79 -229 -97 -403 -105 -114 -5 -156 -2 -220 12 -162 36 -291
104 -469 246 -44 35 -82 66 -85 69 -20 21 -111 90 -136 103 -125 64 -272 30
-415 -95 -178 -155 -346 -255 -513 -307 -139 -43 -370 -46 -523 -6 -91 24
-235 86 -308 133 -63 40 -101 70 -272 208 -62 51 -96 67 -187 88 -61 15 -73
15 -120 2 -62 -19 -121 -55 -206 -131 -210 -187 -404 -286 -617 -316 -83 -12
-268 -6 -318 9 -16 5 -59 18 -95 28 -140 38 -282 126 -457 282 -134 119 -150
127 -258 127 -117 -1 -155 -20 -311 -160 -297 -266 -528 -355 -777 -299 -180
41 -339 156 -521 379 -136 166 -213 287 -300 470 -178 373 -263 912 -211 1343
70 583 257 1069 624 1625 295 447 780 955 1211 1267 637 464 1245 744 2040
940 205 51 422 86 710 115 213 21 274 23 680 19 272 -3 395 -8 525 -24z"/>
<path d="M7594 13680 c-140 -20 -253 -79 -359 -185 -135 -136 -192 -261 -202
-445 -6 -129 10 -210 69 -327 67 -136 167 -244 303 -326 229 -139 518 -107
716 80 108 102 165 188 213 321 23 64 26 89 26 194 0 93 -5 137 -21 192 -49
167 -158 310 -299 392 -101 59 -167 84 -275 100 -98 15 -96 15 -171 4z m109
-240 c105 -39 147 -123 117 -232 -24 -87 -102 -137 -210 -138 -77 0 -112 17
-154 79 -66 95 -34 225 69 278 71 37 106 40 178 13z"/>
<path d="M12175 13674 c-16 -3 -64 -17 -105 -31 -179 -60 -342 -242 -396 -441
-22 -82 -30 -247 -14 -313 36 -148 106 -275 215 -384 89 -90 197 -152 315
-181 93 -23 253 -14 335 18 166 67 313 209 397 383 55 117 75 232 59 349 -25
172 -79 284 -196 402 -63 64 -98 89 -165 122 -47 23 -107 49 -135 57 -50 16
-250 28 -310 19z m135 -249 c132 -69 137 -247 10 -331 -46 -31 -139 -43 -193
-25 -62 21 -117 108 -117 185 0 87 62 169 137 181 21 4 43 8 48 10 17 6 88 -7
115 -20z"/>
</g>
</svg>
